<svg width="787" height="180" viewBox="0 0 787 180" fill="none" xmlns="http://www.w3.org/2000/svg">
<path fill-rule="evenodd" clip-rule="evenodd" d="M77.0254 129.576V147.154H83.0283V129.576H77.0254Z" fill="#0083CA"/>
<path fill-rule="evenodd" clip-rule="evenodd" d="M79.5273 124.331V152.399H80.5276V124.331H79.5273Z" fill="#0083CA"/>
<path fill-rule="evenodd" clip-rule="evenodd" d="M57.3379 142.848V148.235H63.3408V142.848H57.3379Z" fill="#0083CA"/>
<path fill-rule="evenodd" clip-rule="evenodd" d="M59.8398 140.557V156.022H60.8398V140.557H59.8398Z" fill="#0083CA"/>
<path fill-rule="evenodd" clip-rule="evenodd" d="M67.207 137.292V149.448H73.2102V137.292H67.207Z" fill="#00B48D"/>
<path fill-rule="evenodd" clip-rule="evenodd" d="M69.707 132.163V153.767H70.7075V132.163H69.707Z" fill="#00B48D"/>
<path fill-rule="evenodd" clip-rule="evenodd" d="M30.9185 150.508C30.5506 150.26 30.3152 150.076 30.2443 149.973C29.2287 148.492 50.4347 132.807 50.4347 132.807L60.3306 140.215L80.0279 122.732L91.4932 132.259L105.159 116.749L113.853 126.933C113.853 126.933 113.705 127.402 113.418 128.235L105.159 118.56L91.4932 134.07L80.0279 124.543L60.3306 142.027L50.4347 134.618C50.4347 134.618 34.4965 146.407 30.9185 150.508Z" fill="#0083CA"/>
<path fill-rule="evenodd" clip-rule="evenodd" d="M60.8379 139.764L79.556 123.15V124.961L60.8379 141.576V139.764Z" fill="#00B48D"/>
<path fill-rule="evenodd" clip-rule="evenodd" d="M100.996 100.455C100.758 100.391 100.511 100.375 100.267 100.406C100.023 100.438 99.7874 100.517 99.5742 100.64C99.361 100.763 99.174 100.926 99.0239 101.121C98.8738 101.316 98.7636 101.538 98.6995 101.776C98.603 102.133 98.6146 102.511 98.733 102.862C98.8515 103.213 99.0713 103.521 99.3648 103.747C99.6582 103.973 100.012 104.107 100.382 104.132C100.751 104.157 101.12 104.072 101.441 103.887C101.762 103.703 102.021 103.427 102.186 103.095C102.35 102.763 102.413 102.39 102.365 102.023C102.317 101.655 102.162 101.31 101.918 101.031C101.674 100.752 101.353 100.552 100.996 100.455Z" fill="#0083CA"/>
<path fill-rule="evenodd" clip-rule="evenodd" d="M93.0924 92.4063C91.5359 91.9861 89.9336 92.9073 89.5136 94.4638C89.0937 96.0203 90.0149 97.6226 91.5713 98.0426C93.1278 98.4625 94.7299 97.5413 95.1501 95.9848C95.5701 94.4284 94.6489 92.8263 93.0924 92.4063ZM92.8198 93.416C91.8211 93.1466 90.7931 93.7376 90.5235 94.7363C90.254 95.7351 90.8451 96.7631 91.8439 97.0326C92.8426 97.3022 93.8706 96.7111 94.1402 95.7123C94.4098 94.7138 93.8186 93.6855 92.8198 93.416Z" fill="#0083CA"/>
<path fill-rule="evenodd" clip-rule="evenodd" d="M74.61 78.0412C73.0535 77.6213 71.4514 78.5424 71.0312 80.0989C70.6112 81.6554 71.5324 83.2575 73.0889 83.6777C74.6454 84.0976 76.2477 83.1765 76.6677 81.62C77.0876 80.0635 76.1664 78.4612 74.61 78.0412ZM74.3374 79.0511C73.3389 78.7815 72.3107 79.3727 72.0411 80.3715C71.7718 81.3702 72.3627 82.3982 73.3615 82.6678C74.3602 82.9374 75.3882 82.3462 75.6578 81.3474C75.9274 80.3487 75.3362 79.3207 74.3374 79.0511Z" fill="#0083CA"/>
<path fill-rule="evenodd" clip-rule="evenodd" d="M63.6295 91.1646C62.073 90.7447 60.4707 91.6659 60.0507 93.2224C59.6308 94.7788 60.552 96.3809 62.1085 96.8011C63.6649 97.2211 65.267 96.2999 65.6872 94.7434C66.1072 93.1869 65.186 91.5846 63.6295 91.1646ZM63.357 92.1746C62.3582 91.905 61.3302 92.4962 61.0606 93.4949C60.7911 94.4934 61.3822 95.5217 62.381 95.7912C63.3798 96.0606 64.4078 95.4696 64.6773 94.4708C64.9469 93.4721 64.3557 92.4441 63.357 92.1746Z" fill="#0083CA"/>
<path fill-rule="evenodd" clip-rule="evenodd" d="M74.1589 111.046C72.6024 110.626 71.0001 111.547 70.5801 113.104C70.1599 114.66 71.0811 116.262 72.6379 116.682C74.1943 117.102 75.7964 116.181 76.2164 114.625C76.6366 113.068 75.7154 111.466 74.1589 111.046ZM73.8864 112.056C72.8876 111.786 71.8596 112.377 71.59 113.376C71.3205 114.375 71.9116 115.403 72.9101 115.672C73.9089 115.942 74.9372 115.351 75.2065 114.352C75.476 113.354 74.8851 112.325 73.8864 112.056Z" fill="#0083CA"/>
<path fill-rule="evenodd" clip-rule="evenodd" d="M95.0378 108.614C93.4813 108.194 91.879 109.115 91.459 110.671C91.0388 112.228 91.96 113.83 93.5165 114.25C95.0732 114.67 96.6753 113.749 97.0953 112.192C97.5155 110.636 96.5943 109.034 95.0378 108.614ZM94.7653 109.624C93.7665 109.354 92.7385 109.945 92.469 110.944C92.1994 111.943 92.7906 112.971 93.7891 113.24C94.7878 113.51 95.8161 112.919 96.0854 111.92C96.355 110.921 95.764 109.893 94.7653 109.624Z" fill="#0083CA"/>
<path fill-rule="evenodd" clip-rule="evenodd" d="M75.7888 99.3766C75.5513 99.3125 75.3035 99.2958 75.0596 99.3275C74.8157 99.3591 74.5804 99.4385 74.3672 99.5611C74.154 99.6837 73.967 99.8471 73.8169 100.042C73.6668 100.237 73.5565 100.459 73.4924 100.697C73.3959 101.054 73.4076 101.433 73.526 101.784C73.6445 102.135 73.8643 102.442 74.1578 102.669C74.4512 102.895 74.8051 103.029 75.1747 103.053C75.5443 103.078 75.9129 102.993 76.234 102.808C76.5552 102.624 76.8144 102.348 76.9788 102.016C77.1433 101.684 77.2056 101.311 77.1579 100.944C77.1103 100.576 76.9547 100.231 76.711 99.9525C76.4673 99.6736 76.1464 99.4732 75.7888 99.3766Z" fill="#0083CA"/>
<path fill-rule="evenodd" clip-rule="evenodd" d="M84.8434 114.948C84.6059 114.884 84.3581 114.867 84.1142 114.899C83.8703 114.93 83.635 115.01 83.4217 115.132C83.2085 115.255 83.0215 115.418 82.8714 115.613C82.7213 115.808 82.6111 116.031 82.5471 116.268C82.4506 116.626 82.4623 117.004 82.5808 117.355C82.6992 117.706 82.9191 118.014 83.2126 118.24C83.5061 118.466 83.86 118.6 84.2295 118.625C84.5991 118.65 84.9678 118.564 85.2889 118.38C85.61 118.195 85.8691 117.919 86.0336 117.587C86.198 117.255 86.2603 116.882 86.2126 116.515C86.1649 116.148 86.0094 115.803 85.7657 115.524C85.5219 115.245 85.201 115.044 84.8434 114.948Z" fill="#0083CA"/>
<path fill-rule="evenodd" clip-rule="evenodd" d="M54.0289 103.333C53.7914 103.269 53.5437 103.252 53.2997 103.284C53.0558 103.316 52.8205 103.395 52.6073 103.518C52.394 103.64 52.207 103.804 52.057 103.999C51.9069 104.194 51.7967 104.416 51.7326 104.654C51.6361 105.011 51.6479 105.389 51.7663 105.74C51.8848 106.091 52.1047 106.399 52.3981 106.625C52.6916 106.851 53.0455 106.985 53.4151 107.01C53.7846 107.035 54.1533 106.95 54.4744 106.765C54.7955 106.58 55.0547 106.305 55.2191 105.973C55.3835 105.641 55.4458 105.268 55.3981 104.9C55.3505 104.533 55.1949 104.188 54.9512 103.909C54.7075 103.63 54.3865 103.43 54.0289 103.333Z" fill="#0083CA"/>
<path fill-rule="evenodd" clip-rule="evenodd" d="M46.5095 91.4103C46.272 91.3462 46.0242 91.3295 45.7803 91.3612C45.5364 91.3928 45.3011 91.4722 45.0879 91.5948C44.8747 91.7173 44.6876 91.8807 44.5376 92.0756C44.3875 92.2704 44.2772 92.493 44.2131 92.7304C44.1166 93.088 44.1283 93.4662 44.2467 93.8172C44.3652 94.1682 44.585 94.4762 44.8785 94.7022C45.1719 94.9283 45.5258 95.0622 45.8954 95.0871C46.265 95.112 46.6336 95.0268 46.9548 94.8421C47.2759 94.6575 47.5351 94.3819 47.6995 94.0499C47.864 93.718 47.9263 93.3448 47.8786 92.9775C47.831 92.6101 47.6754 92.2652 47.4317 91.9862C47.188 91.7073 46.8671 91.5068 46.5095 91.4103Z" fill="#0083CA"/>
<path fill-rule="evenodd" clip-rule="evenodd" d="M51.5817 81.7207C51.3442 81.6566 51.0964 81.6399 50.8525 81.6716C50.6086 81.7033 50.3733 81.7826 50.16 81.9052C49.9468 82.0278 49.7598 82.1913 49.6097 82.3862C49.4596 82.5811 49.3494 82.8036 49.2853 83.0411C49.1889 83.3987 49.2006 83.7769 49.3191 84.1278C49.4375 84.4788 49.6574 84.7867 49.9509 85.0127C50.2443 85.2387 50.5982 85.3727 50.9678 85.3975C51.3374 85.4224 51.706 85.3371 52.0271 85.1525C52.3483 84.9679 52.6074 84.6922 52.7718 84.3602C52.9363 84.0283 52.9986 83.6551 52.9509 83.2878C52.9032 82.9205 52.7477 82.5755 52.5039 82.2966C52.2602 82.0176 51.9393 81.8172 51.5817 81.7207Z" fill="#0083CA"/>
<path fill-rule="evenodd" clip-rule="evenodd" d="M62.6683 101.992C62.3917 101.917 62.0968 101.956 61.8485 102.098C61.6001 102.241 61.4187 102.477 61.344 102.753C61.2883 102.96 61.295 103.178 61.3633 103.38C61.4316 103.583 61.5584 103.76 61.7277 103.891C61.897 104.021 62.1011 104.098 62.3143 104.113C62.5274 104.127 62.7401 104.078 62.9254 103.971C63.1106 103.865 63.2601 103.706 63.3549 103.514C63.4498 103.323 63.4857 103.108 63.4582 102.896C63.4307 102.684 63.3409 102.485 63.2003 102.324C63.0597 102.163 62.8746 102.048 62.6683 101.992Z" fill="#0083CA"/>
<path fill-rule="evenodd" clip-rule="evenodd" d="M45.7386 99.7833C45.4619 99.7086 45.167 99.747 44.9187 99.8898C44.6703 100.033 44.4889 100.268 44.4142 100.545C44.3586 100.751 44.3654 100.969 44.4337 101.172C44.502 101.374 44.6289 101.552 44.7982 101.682C44.9674 101.813 45.1716 101.89 45.3848 101.904C45.5979 101.918 45.8106 101.869 45.9958 101.763C46.181 101.656 46.3305 101.497 46.4253 101.306C46.5201 101.114 46.556 100.899 46.5285 100.687C46.5009 100.475 46.4112 100.276 46.2706 100.115C46.13 99.9545 45.9448 99.8389 45.7386 99.7833Z" fill="#0083CA"/>
<path fill-rule="evenodd" clip-rule="evenodd" d="M60.139 76.2916C59.8624 76.217 59.5675 76.2552 59.3192 76.398C59.0708 76.5408 58.8894 76.7764 58.8147 77.053C58.759 77.2592 58.7657 77.4774 58.834 77.6799C58.9023 77.8823 59.0291 78.06 59.1984 78.1904C59.3677 78.3208 59.5718 78.398 59.785 78.4124C59.9982 78.4267 60.2108 78.3775 60.3961 78.271C60.5813 78.1646 60.7308 78.0055 60.8256 77.8141C60.9205 77.6226 60.9564 77.4073 60.9289 77.1955C60.9014 76.9836 60.8116 76.7846 60.671 76.6237C60.5304 76.4628 60.3453 76.3472 60.139 76.2916Z" fill="#0083CA"/>
<path fill-rule="evenodd" clip-rule="evenodd" d="M61.4612 113.097C61.1846 113.023 60.8897 113.061 60.6413 113.204C60.393 113.347 60.2115 113.582 60.1369 113.859C60.0813 114.065 60.088 114.283 60.1563 114.486C60.2247 114.688 60.3515 114.866 60.5208 114.996C60.6901 115.127 60.8942 115.204 61.1074 115.218C61.3206 115.232 61.5332 115.183 61.7184 115.077C61.9036 114.97 62.0531 114.811 62.1479 114.62C62.2428 114.428 62.2787 114.213 62.2511 114.001C62.2236 113.789 62.1339 113.59 61.9933 113.429C61.8526 113.268 61.6675 113.153 61.4612 113.097Z" fill="#0083CA"/>
<path fill-rule="evenodd" clip-rule="evenodd" d="M90.8705 97.3366L90.1614 96.6248L74.5684 111.861L75.5475 112.545L90.8705 97.3366Z" fill="#0083CA"/>
<path fill-rule="evenodd" clip-rule="evenodd" d="M93.1818 97.7656L92.1836 97.8784L93.2867 109.354L94.4316 109.013L93.1818 97.7656Z" fill="#0083CA"/>
<path fill-rule="evenodd" clip-rule="evenodd" d="M64.3156 95.6688L63.4355 96.1535L71.9305 112.18L72.8594 111.428L64.3156 95.6688Z" fill="#0083CA"/>
<path fill-rule="evenodd" clip-rule="evenodd" d="M91.9732 111.219L92.0604 112.22L75.6621 114.137L75.7694 112.947L91.9732 111.219Z" fill="#0083CA"/>
<path fill-rule="evenodd" clip-rule="evenodd" d="M60.1825 93.3101L60.2697 94.3108L47.695 93.8594L47.1561 93.8995L46.6172 93.9396L46.6442 93.6423L46.6709 93.3448L46.698 93.0472L46.7247 92.7499L60.1825 93.3101Z" fill="#0083CA"/>
<path fill-rule="evenodd" clip-rule="evenodd" d="M89.7663 94.6973L89.8535 95.6983C85.5961 95.5454 69.5559 94.3997 65.4062 94.7097C65.4422 94.313 65.4778 93.9163 65.5138 93.5197L89.7663 94.6973Z" fill="#0083CA"/>
<path fill-rule="evenodd" clip-rule="evenodd" d="M90.5275 93.1893L90.0096 94.0503L75.7305 82.5001L76.2032 81.6765L90.5275 93.1893Z" fill="#0083CA"/>
<path fill-rule="evenodd" clip-rule="evenodd" d="M93.0802 108.954L92.5623 109.815L75.166 83.067L75.6388 82.2434L93.0802 108.954Z" fill="#0083CA"/>
<path fill-rule="evenodd" clip-rule="evenodd" d="M71.34 81.433L71.8362 82.3064C67.9026 83.9419 50.9786 91.2944 47.3357 93.3056C47.2031 92.93 47.0703 92.5546 46.9375 92.179L71.34 81.433Z" fill="#0083CA"/>
<path fill-rule="evenodd" clip-rule="evenodd" d="M71.7728 82.6667L72.5159 83.1866L64.9282 92.3126L64.1113 91.5783L71.7728 82.6667Z" fill="#0083CA"/>
<path fill-rule="evenodd" clip-rule="evenodd" d="M60.8841 95.7013L61.627 96.2211L54.0393 105.347L53.2227 104.613L60.8841 95.7013Z" fill="#0083CA"/>
<path fill-rule="evenodd" clip-rule="evenodd" d="M71.3163 112.503L71.0388 113.366L54.5859 106.224L55.0468 105.227L71.3163 112.503Z" fill="#0083CA"/>
<path fill-rule="evenodd" clip-rule="evenodd" d="M71.226 80.5615L71.7223 81.4349L52.5368 84.0556L52.1387 82.9292L71.226 80.5615Z" fill="#0083CA"/>
<path fill-rule="evenodd" clip-rule="evenodd" d="M52.2318 104.096L53.1243 103.544L47.0582 94.2118L46.9373 92.1789L50.9486 84.9473L49.9484 84.5803L45.9531 92.1355L46.3736 94.771L52.2318 104.096Z" fill="#0083CA"/>
<path fill-rule="evenodd" clip-rule="evenodd" d="M77.543 129.088V146.783H83.5863V129.088H77.543Z" fill="#0083CA"/>
<path fill-rule="evenodd" clip-rule="evenodd" d="M80.0625 123.806V152.064H81.0695V123.806H80.0625Z" fill="#0083CA"/>
<path fill-rule="evenodd" clip-rule="evenodd" d="M57.7227 142.449V147.872H63.766V142.449H57.7227Z" fill="#0083CA"/>
<path fill-rule="evenodd" clip-rule="evenodd" d="M60.2383 140.143V155.712H61.245V140.143H60.2383Z" fill="#0083CA"/>
<path fill-rule="evenodd" clip-rule="evenodd" d="M67.6582 136.855V149.093H73.7018V136.855H67.6582Z" fill="#00B48D"/>
<path fill-rule="evenodd" clip-rule="evenodd" d="M70.1758 131.692V153.441H71.183V131.692H70.1758Z" fill="#00B48D"/>
<path fill-rule="evenodd" clip-rule="evenodd" d="M31.1245 150.16C30.7541 149.911 30.5171 149.726 30.4457 149.622C29.4233 148.131 50.772 132.34 50.772 132.34L60.7345 139.798L80.5643 122.197L92.1067 131.788L105.865 116.174L114.617 126.426C114.617 126.426 114.468 126.899 114.18 127.737L105.865 117.998L92.1067 133.612L80.5643 124.02L60.7345 141.622L50.772 134.164C50.772 134.164 34.7266 146.032 31.1245 150.16Z" fill="#0083CA"/>
<path fill-rule="evenodd" clip-rule="evenodd" d="M61.2461 139.344L80.0902 122.618V124.441L61.2461 141.168V139.344Z" fill="#00B48D"/>
<path fill-rule="evenodd" clip-rule="evenodd" d="M101.672 99.7708C101.433 99.7063 101.183 99.6895 100.938 99.7214C100.692 99.7532 100.455 99.8331 100.241 99.9565C100.026 100.08 99.8378 100.244 99.6867 100.441C99.5356 100.637 99.4246 100.861 99.3601 101.1C99.2629 101.46 99.2746 101.841 99.3939 102.194C99.5131 102.547 99.7344 102.857 100.03 103.085C100.325 103.312 100.682 103.447 101.054 103.472C101.426 103.497 101.797 103.412 102.12 103.226C102.443 103.04 102.704 102.762 102.87 102.428C103.035 102.094 103.098 101.718 103.05 101.349C103.002 100.979 102.846 100.631 102.6 100.351C102.355 100.07 102.032 99.868 101.672 99.7708Z" fill="#0083CA"/>
<path fill-rule="evenodd" clip-rule="evenodd" d="M93.7168 91.6674C92.1498 91.2443 90.5367 92.1717 90.1139 93.7387C89.6911 95.3056 90.6185 96.9188 92.1855 97.3416C93.7524 97.7644 95.3653 96.8369 95.7883 95.27C96.2111 93.703 95.2837 92.0902 93.7168 91.6674ZM93.4424 92.6838C92.4369 92.4127 91.402 93.0076 91.1306 94.0131C90.8592 95.0185 91.4544 96.0535 92.4599 96.3248C93.4653 96.5962 94.5002 96.0011 94.7716 94.9956C95.043 93.9904 94.4479 92.9552 93.4424 92.6838Z" fill="#0083CA"/>
<path fill-rule="evenodd" clip-rule="evenodd" d="M75.1093 77.2057C73.5424 76.7829 71.9295 77.7103 71.5065 79.2773C71.0837 80.8442 72.0111 82.4571 73.5781 82.8801C75.145 83.3029 76.7581 82.3755 77.1809 80.8086C77.6037 79.2416 76.6763 77.6285 75.1093 77.2057ZM74.835 78.2224C73.8297 77.951 72.7946 78.5462 72.5232 79.5516C72.2521 80.5571 72.847 81.592 73.8524 81.8634C74.8579 82.1348 75.8928 81.5397 76.1642 80.5342C76.4356 79.5287 75.8404 78.4938 74.835 78.2224Z" fill="#0083CA"/>
<path fill-rule="evenodd" clip-rule="evenodd" d="M64.0566 90.4171C62.4897 89.9944 60.8766 90.9218 60.4538 92.4887C60.031 94.0557 60.9584 95.6685 62.5253 96.0916C64.0923 96.5144 65.7051 95.5869 66.1282 94.02C66.551 92.453 65.6236 90.8399 64.0566 90.4171ZM63.7822 91.4339C62.7768 91.1625 61.7419 91.7576 61.4705 92.7631C61.1991 93.7683 61.7942 94.8035 62.7997 95.0749C63.8052 95.346 64.8401 94.7511 65.1115 93.7456C65.3829 92.7401 64.7877 91.7053 63.7822 91.4339Z" fill="#0083CA"/>
<path fill-rule="evenodd" clip-rule="evenodd" d="M74.6563 110.433C73.0894 110.01 71.4763 110.937 71.0535 112.504C70.6304 114.071 71.5579 115.684 73.1251 116.107C74.692 116.53 76.3049 115.602 76.7276 114.035C77.1507 112.468 76.2233 110.856 74.6563 110.433ZM74.382 111.449C73.3765 111.178 72.3416 111.773 72.0702 112.778C71.7988 113.784 72.3939 114.819 73.3992 115.09C74.4046 115.362 75.4398 114.766 75.7109 113.761C75.9823 112.756 75.3874 111.721 74.382 111.449Z" fill="#0083CA"/>
<path fill-rule="evenodd" clip-rule="evenodd" d="M95.6778 107.984C94.1109 107.561 92.4978 108.488 92.075 110.055C91.6519 111.622 92.5793 113.235 94.1463 113.658C95.7135 114.081 97.3263 113.154 97.7491 111.587C98.1722 110.02 97.2448 108.407 95.6778 107.984ZM95.4034 109C94.3979 108.729 93.3631 109.324 93.0917 110.33C92.8203 111.335 93.4154 112.37 94.4207 112.641C95.4261 112.913 96.4613 112.318 96.7324 111.312C97.0038 110.307 96.4089 109.272 95.4034 109Z" fill="#0083CA"/>
<path fill-rule="evenodd" clip-rule="evenodd" d="M76.3007 98.6851C76.0617 98.6205 75.8123 98.6037 75.5667 98.6355C75.3211 98.6674 75.0843 98.7473 74.8696 98.8708C74.6549 98.9942 74.4667 99.1586 74.3156 99.3548C74.1645 99.551 74.0535 99.775 73.989 100.014C73.8918 100.374 73.9036 100.755 74.0228 101.108C74.142 101.462 74.3633 101.772 74.6588 101.999C74.9542 102.227 75.3105 102.362 75.6825 102.387C76.0546 102.412 76.4257 102.326 76.749 102.14C77.0723 101.954 77.3333 101.677 77.4988 101.342C77.6644 101.008 77.7271 100.633 77.6791 100.263C77.6311 99.8929 77.4746 99.5457 77.2292 99.2648C76.9839 98.984 76.6608 98.7823 76.3007 98.6851Z" fill="#0083CA"/>
<path fill-rule="evenodd" clip-rule="evenodd" d="M85.4159 114.361C85.1768 114.296 84.9274 114.279 84.6818 114.311C84.4362 114.343 84.1994 114.423 83.9847 114.547C83.77 114.67 83.5818 114.835 83.4307 115.031C83.2796 115.227 83.1686 115.451 83.1041 115.69C83.007 116.05 83.0188 116.431 83.1381 116.784C83.2573 117.137 83.4787 117.447 83.7741 117.675C84.0696 117.902 84.4259 118.037 84.7979 118.062C85.17 118.087 85.5411 118.002 85.8644 117.816C86.1877 117.63 86.4486 117.352 86.6141 117.018C86.7796 116.684 86.8424 116.308 86.7943 115.938C86.7463 115.569 86.5898 115.221 86.3444 114.941C86.099 114.66 85.7759 114.458 85.4159 114.361Z" fill="#0083CA"/>
<path fill-rule="evenodd" clip-rule="evenodd" d="M54.3905 102.668C54.1514 102.604 53.902 102.587 53.6564 102.619C53.4109 102.651 53.174 102.731 52.9593 102.854C52.7446 102.977 52.5564 103.142 52.4053 103.338C52.2542 103.534 52.1432 103.758 52.0787 103.998C51.9816 104.358 51.9934 104.738 52.1127 105.092C52.232 105.445 52.4533 105.755 52.7488 105.982C53.0442 106.21 53.4005 106.345 53.7725 106.37C54.1446 106.395 54.5157 106.309 54.839 106.123C55.1623 105.937 55.4232 105.66 55.5887 105.326C55.7542 104.991 55.8169 104.616 55.7689 104.246C55.7209 103.876 55.5644 103.529 55.319 103.248C55.0736 102.967 54.7505 102.765 54.3905 102.668Z" fill="#0083CA"/>
<path fill-rule="evenodd" clip-rule="evenodd" d="M46.8222 90.6653C46.5832 90.6007 46.3337 90.5839 46.0882 90.6158C45.8426 90.6476 45.6058 90.7275 45.3911 90.851C45.1764 90.9744 44.9882 91.1388 44.8371 91.335C44.686 91.5312 44.575 91.7552 44.5105 91.9943C44.4133 92.3543 44.425 92.735 44.5443 93.0884C44.6635 93.4417 44.8848 93.7518 45.1802 93.9793C45.4757 94.2069 45.8319 94.3417 46.204 94.3668C46.5761 94.3919 46.9472 94.306 47.2705 94.1202C47.5938 93.9343 47.8547 93.6568 48.0203 93.3227C48.1858 92.9885 48.2486 92.6128 48.2006 92.243C48.1526 91.8731 47.9961 91.5259 47.7507 91.2451C47.5054 90.9642 47.1823 90.7624 46.8222 90.6653Z" fill="#0083CA"/>
<path fill-rule="evenodd" clip-rule="evenodd" d="M51.9276 80.9097C51.6885 80.8452 51.4391 80.8284 51.1935 80.8603C50.948 80.8922 50.7111 80.9721 50.4964 81.0955C50.2817 81.2189 50.0935 81.3835 49.9424 81.5797C49.7913 81.7759 49.6804 81.9999 49.6159 82.239C49.5187 82.599 49.5305 82.9798 49.6498 83.3331C49.7691 83.6864 49.9904 83.9964 50.2859 84.2239C50.5813 84.4514 50.9376 84.5863 51.3096 84.6113C51.6817 84.6364 52.0528 84.5505 52.3761 84.3646C52.6994 84.1788 52.9603 83.9012 53.1258 83.567C53.2913 83.2329 53.3541 82.8572 53.306 82.4874C53.258 82.1176 53.1015 81.7703 52.8561 81.4895C52.6108 81.2087 52.2876 81.0069 51.9276 80.9097Z" fill="#0083CA"/>
<path fill-rule="evenodd" clip-rule="evenodd" d="M63.0896 101.318C62.8111 101.243 62.5143 101.281 62.2642 101.425C62.0142 101.569 61.8315 101.806 61.7563 102.084C61.7003 102.292 61.7071 102.512 61.7758 102.715C61.8446 102.919 61.9722 103.098 62.1426 103.229C62.313 103.361 62.5185 103.438 62.7332 103.453C62.9478 103.467 63.1619 103.418 63.3484 103.311C63.5348 103.203 63.6853 103.043 63.7808 102.851C63.8763 102.658 63.9125 102.441 63.8848 102.228C63.8571 102.014 63.7667 101.814 63.6252 101.652C63.4836 101.49 63.2973 101.374 63.0896 101.318Z" fill="#0083CA"/>
<path fill-rule="evenodd" clip-rule="evenodd" d="M46.0446 99.0942C45.7661 99.0191 45.4692 99.0576 45.2192 99.2014C44.9692 99.3452 44.7865 99.5825 44.7114 99.8609C44.6553 100.069 44.6622 100.288 44.731 100.492C44.7998 100.696 44.9274 100.875 45.0979 101.006C45.2683 101.137 45.4738 101.215 45.6884 101.229C45.903 101.244 46.1171 101.194 46.3036 101.087C46.49 100.98 46.6405 100.82 46.7359 100.627C46.8314 100.434 46.8676 100.217 46.8398 100.004C46.8121 99.7908 46.7218 99.5905 46.5802 99.4285C46.4387 99.2665 46.2523 99.1502 46.0446 99.0942Z" fill="#0083CA"/>
<path fill-rule="evenodd" clip-rule="evenodd" d="M60.5466 75.4444C60.2682 75.3693 59.9713 75.4078 59.7213 75.5516C59.4712 75.6953 59.2885 75.9325 59.2134 76.2109C59.1573 76.4186 59.1641 76.6382 59.2328 76.842C59.3016 77.0459 59.4292 77.2247 59.5997 77.356C59.7701 77.4872 59.9756 77.565 60.1902 77.5795C60.4048 77.5939 60.6189 77.5444 60.8054 77.4372C60.9919 77.33 61.1423 77.1699 61.2378 76.9772C61.3333 76.7844 61.3695 76.5677 61.3418 76.3544C61.3141 76.1411 61.2238 75.9408 61.0822 75.7788C60.9407 75.6168 60.7543 75.5004 60.5466 75.4444Z" fill="#0083CA"/>
<path fill-rule="evenodd" clip-rule="evenodd" d="M61.8766 112.498C61.5982 112.423 61.3012 112.461 61.0512 112.605C60.8012 112.749 60.6185 112.986 60.5434 113.265C60.4874 113.472 60.4942 113.692 60.563 113.896C60.6318 114.099 60.7595 114.278 60.9299 114.409C61.1003 114.541 61.3058 114.618 61.5204 114.633C61.7351 114.647 61.9491 114.598 62.1356 114.491C62.322 114.383 62.4725 114.223 62.568 114.03C62.6634 113.838 62.6996 113.621 62.6719 113.408C62.6442 113.194 62.5538 112.994 62.4122 112.832C62.2707 112.67 62.0843 112.554 61.8766 112.498Z" fill="#0083CA"/>
<path fill-rule="evenodd" clip-rule="evenodd" d="M91.4802 96.6308L90.7664 95.9142L75.0684 111.252L76.0541 111.942L91.4802 96.6308Z" fill="#0083CA"/>
<path fill-rule="evenodd" clip-rule="evenodd" d="M93.8077 97.063L92.8027 97.1765L93.9132 108.729L95.0659 108.386L93.8077 97.063Z" fill="#0083CA"/>
<path fill-rule="evenodd" clip-rule="evenodd" d="M64.7493 94.9523L63.8633 95.4402L72.4154 111.574L73.3506 110.817L64.7493 94.9523Z" fill="#0083CA"/>
<path fill-rule="evenodd" clip-rule="evenodd" d="M92.5908 110.606L92.6786 111.614L76.1699 113.544L76.2779 112.346L92.5908 110.606Z" fill="#0083CA"/>
<path fill-rule="evenodd" clip-rule="evenodd" d="M60.5863 92.5774L60.6741 93.5849L48.0147 93.1304L47.4722 93.1708L46.9297 93.2112L46.9569 92.9119L46.9838 92.6123L47.011 92.3127L47.0379 92.0134L60.5863 92.5774Z" fill="#0083CA"/>
<path fill-rule="evenodd" clip-rule="evenodd" d="M90.3678 93.9739L90.4556 94.9816C86.1695 94.8277 70.0213 93.6743 65.8438 93.9864C65.8799 93.587 65.9158 93.1877 65.952 92.7883L90.3678 93.9739Z" fill="#0083CA"/>
<path fill-rule="evenodd" clip-rule="evenodd" d="M91.1368 92.4562L90.6155 93.323L76.2402 81.6951L76.7162 80.866L91.1368 92.4562Z" fill="#0083CA"/>
<path fill-rule="evenodd" clip-rule="evenodd" d="M93.7066 108.326L93.1853 109.193L75.6719 82.2652L76.1478 81.436L93.7066 108.326Z" fill="#0083CA"/>
<path fill-rule="evenodd" clip-rule="evenodd" d="M71.8206 80.6206L72.3202 81.4999C68.3601 83.1464 51.3222 90.5484 47.6547 92.5731C47.5213 92.1949 47.3876 91.8171 47.2539 91.4389L71.8206 80.6206Z" fill="#0083CA"/>
<path fill-rule="evenodd" clip-rule="evenodd" d="M72.258 81.8624L73.006 82.3858L65.3673 91.5732L64.5449 90.8339L72.258 81.8624Z" fill="#0083CA"/>
<path fill-rule="evenodd" clip-rule="evenodd" d="M61.2951 94.9844L62.0429 95.5077L54.4042 104.695L53.582 103.956L61.2951 94.9844Z" fill="#0083CA"/>
<path fill-rule="evenodd" clip-rule="evenodd" d="M71.796 111.9L71.5167 112.769L54.9531 105.579L55.4171 104.575L71.796 111.9Z" fill="#0083CA"/>
<path fill-rule="evenodd" clip-rule="evenodd" d="M71.706 79.7433L72.2056 80.6226L52.8911 83.2608L52.4902 82.1269L71.706 79.7433Z" fill="#0083CA"/>
<path fill-rule="evenodd" clip-rule="evenodd" d="M52.5827 103.436L53.4811 102.881L47.3742 93.4852L47.2525 91.4386L51.2908 84.1584L50.2839 83.7889L46.2617 91.395L46.685 94.0482L52.5827 103.436Z" fill="#0083CA"/>
<path fill-rule="evenodd" clip-rule="evenodd" d="M92.7136 112.476L85.2866 116.445L80.4002 122.971L74.9688 115.776L75.9081 115.07L80.2827 121.296L84.8609 115.549L92.2524 111.53L92.7136 112.476Z" fill="#0083CA"/>
<path fill-rule="evenodd" clip-rule="evenodd" d="M78.3394 59.7355C82.0852 56.503 86.5608 61.7544 83.2178 64.9517C82.0163 66.1011 79.7544 66.4393 78.1755 64.804C77.0032 63.5895 76.5859 61.2488 78.3394 59.7355Z" fill="#0083CA"/>
<path fill-rule="evenodd" clip-rule="evenodd" d="M84.8643 78.7958C87.8805 76.0692 91.8842 80.5935 88.9247 83.2639C87.8561 84.2282 85.9284 84.45 84.6221 83.0307C83.6536 81.9783 83.4553 80.0694 84.8643 78.7958Z" fill="#0083CA"/>
<path fill-rule="evenodd" clip-rule="evenodd" d="M70.1199 67.7329C72.7063 65.3099 76.2627 69.3228 73.5743 71.6273C71.0946 73.753 67.5781 70.1138 70.1199 67.7329Z" fill="#0083CA"/>
<path fill-rule="evenodd" clip-rule="evenodd" d="M79.9536 70.913C81.6844 69.3648 83.9937 71.9065 82.2613 73.4797C81.6447 74.0397 80.5525 74.0898 79.8234 73.3223C79.2821 72.7526 79.1569 71.6254 79.9536 70.913Z" fill="#0083CA"/>
<path fill-rule="evenodd" clip-rule="evenodd" d="M88.3374 66.5136C89.9962 64.8478 92.4035 67.2372 90.7951 68.9184C89.2943 70.4871 86.7151 68.1424 88.3374 66.5136Z" fill="#0083CA"/>
<path fill-rule="evenodd" clip-rule="evenodd" d="M90.0366 85.2925C91.6827 83.5915 94.1498 86.0607 92.4843 87.7095C91.0364 89.143 88.4313 86.9514 90.0366 85.2925Z" fill="#0083CA"/>
<path fill-rule="evenodd" clip-rule="evenodd" d="M88.0331 72.8636C89.496 71.4885 91.4064 73.5853 90.0346 74.9225C88.7168 76.2069 86.6574 74.157 88.0331 72.8636Z" fill="#0083CA"/>
<path d="M120.494 83.314L135.027 52.7801C122.233 31.5557 100.829 17.462 75.5905 18.1654C-25.5848 21.6588 -25.5097 179.299 77.711 179.998C102.759 180.168 121.423 165.727 135.589 146.542C146.131 132.264 156.379 113.778 165.488 95.7237C179.591 96.773 181.405 96.908 165.488 95.7237L138.7 59.6042C134.398 70.6073 138.708 59.5842 138.708 59.5842L138.7 59.6042C135.351 67.4434 129.089 81.9826 122.429 95.7237C120.531 121.013 104.215 152.199 74.5751 152.199C14.2932 152.199 13.8951 45.6303 75.602 45.6303C96.7691 45.6303 114.659 61.5061 120.494 83.314Z" fill="url(#paint0_linear_3910_7745)"/>
<path d="M204.589 51.1832L189.963 44.5991C183.835 57.2481 175.28 76.3577 165.381 95.9761L158.686 86.9413L151.991 77.9064L145.296 68.8715L138.602 59.8379L138.594 59.8566L138.601 59.8367C139.897 56.805 141.254 53.8308 142.629 50.8814L153.072 27.654L140.544 21.6241L187.767 4.6438L204.589 51.1832Z" fill="url(#paint1_linear_3910_7745)"/>
<path fill-rule="evenodd" clip-rule="evenodd" d="M213.084 168.98C195.302 163.574 172.125 134.843 167.413 113.96C160.97 125.974 154.116 137.648 147.102 147.6C166.527 163.731 190.213 169.719 213.084 168.98Z" fill="#00B48D"/>
<path fill-rule="evenodd" clip-rule="evenodd" d="M92.0911 113.075L84.7138 117.018L79.86 123.501L74.4648 116.354L75.3979 115.652L79.7433 121.836L84.2908 116.128L91.633 112.136L92.0911 113.075Z" fill="#0083CA"/>
<path fill-rule="evenodd" clip-rule="evenodd" d="M77.8159 60.6877C81.5366 57.4768 85.9823 62.6931 82.6617 65.869C81.4682 67.0107 79.2215 67.3467 77.6531 65.7223C76.4886 64.5159 76.0741 62.1909 77.8159 60.6877Z" fill="#0083CA"/>
<path fill-rule="evenodd" clip-rule="evenodd" d="M84.297 79.6208C87.293 76.9125 91.27 81.4065 88.3302 84.0591C87.2688 85.017 85.354 85.2372 84.0564 83.8274C83.0944 82.7821 82.8974 80.8859 84.297 79.6208Z" fill="#0083CA"/>
<path fill-rule="evenodd" clip-rule="evenodd" d="M69.653 68.6318C72.2221 66.225 75.7548 70.2111 73.0844 72.5002C70.6213 74.6117 67.1283 70.9968 69.653 68.6318Z" fill="#0083CA"/>
<path fill-rule="evenodd" clip-rule="evenodd" d="M79.4205 71.7904C81.1397 70.2525 83.4336 72.7773 81.7128 74.3399C81.1003 74.8962 80.0154 74.946 79.2911 74.1836C78.7535 73.6177 78.6291 72.498 79.4205 71.7904Z" fill="#0083CA"/>
<path fill-rule="evenodd" clip-rule="evenodd" d="M87.748 67.4206C89.3957 65.766 91.7869 68.1393 90.1893 69.8093C88.6985 71.3675 86.1365 69.0385 87.748 67.4206Z" fill="#0083CA"/>
<path fill-rule="evenodd" clip-rule="evenodd" d="M89.4356 86.0737C91.0706 84.3841 93.5213 86.8368 91.8669 88.4746C90.4286 89.8985 87.841 87.7216 89.4356 86.0737Z" fill="#0083CA"/>
<path fill-rule="evenodd" clip-rule="evenodd" d="M87.4461 73.7282C88.8992 72.3622 90.7969 74.445 89.4341 75.7733C88.1252 77.0491 86.0796 75.0129 87.4461 73.7282Z" fill="#0083CA"/>
<path fill-rule="evenodd" clip-rule="evenodd" d="M211.658 169.202C193.995 163.833 170.973 135.293 166.292 114.549C159.893 126.483 153.084 138.08 146.117 147.965C165.413 163.989 188.94 169.937 211.658 169.202Z" fill="#00B48D"/>
<path fill-rule="evenodd" clip-rule="evenodd" d="M188.398 117.871C188.398 126.443 196.182 131.665 214.113 131.665C228.596 131.665 240.025 126.541 240.025 113.142C240.025 105.556 235.001 99.6444 227.02 95.6046L213.029 88.9049C208.005 86.5402 202.684 82.895 202.684 76.4912C202.684 70.2839 208.005 66.7371 214.015 66.7371C221.01 66.7371 225.147 71.2692 225.147 77.7714C225.147 80.6292 224.36 82.6976 222.684 84.4711C223.473 85.7521 225.739 87.2297 229.385 87.2297C238.153 87.2297 238.941 81.6141 238.941 78.9543C238.941 70.0866 230.369 64.668 213.621 64.668C198.547 64.668 188.694 70.3822 188.694 82.3036C188.694 88.8065 192.339 94.1268 201.01 98.659L215.788 106.048C222.29 109.595 225.641 113.339 225.641 119.053C225.641 126.738 220.419 129.595 214.015 129.595C206.33 129.595 202.389 125.162 202.389 119.053C202.389 115.014 204.359 111.664 206.132 110.876C205.246 109.497 203.079 108.216 199.433 108.216C191.256 108.216 188.398 112.945 188.398 117.871ZM320.914 122.305L315.987 72.7469C315.594 69.5941 315.889 67.6233 320.914 67.6233V65.6533H309.091C301.11 65.6533 298.155 72.4514 295.888 80.2345L285.445 117.477C282.982 106.048 275.789 79.0526 274.213 73.5351C272.242 66.9338 269.878 65.85 261.405 65.6533H252.144V67.6233C255.789 67.6233 257.07 68.3131 256.774 71.5648L250.665 122.403C249.976 127.822 249.385 128.808 245.838 128.808V130.778C247.612 130.778 249.188 130.581 251.06 130.581C252.045 130.581 254.311 130.778 255.198 130.778V128.808C252.439 128.808 252.242 127.132 252.636 123.684L258.942 69.2001C259.73 71.7616 270.371 110.778 274.903 130.581H283.868L297.268 83.0925C299.041 76.9835 300.42 73.0428 302.391 70.6778L307.81 123.979C308.105 127.231 307.219 128.808 303.081 128.808V130.778C306.234 130.778 308.697 130.581 314.707 130.581C321.603 130.581 324.263 130.679 327.416 130.778V128.808C323.081 128.808 321.308 126.541 320.914 122.305ZM384.856 128.808C380.718 128.808 379.93 127.92 379.142 124.177C375.299 106.245 370.964 88.0186 367.417 70.1855C367.023 68.3131 367.516 67.5252 368.5 67.4269C369.387 67.3285 370.373 67.3285 371.851 67.3285L371.752 65.6533H370.865C363.476 65.6533 356.481 65.1603 353.23 66.8354C349.781 68.7078 348.303 72.8453 346.234 80.2345C342.294 94.5208 338.254 108.807 334.411 123.093C333.032 127.92 332.539 128.709 329.288 128.808L329.189 130.778C330.667 130.778 332.539 130.581 334.51 130.581C335.594 130.581 339.929 130.778 341.013 130.778V128.808C336.185 128.808 335.692 128.118 336.283 125.655L340.027 111.861H362.195C363.082 116.394 363.968 120.827 364.757 125.359C365.348 128.315 363.87 128.808 360.619 128.808V130.778C363.968 130.778 365.939 130.581 371.358 130.581C378.944 130.581 381.703 130.778 384.954 130.778L384.856 128.808ZM340.52 109.891L348.5 80.6292C349.683 76.1954 351.259 71.3676 353.23 69.8899C356.185 83.0925 359.042 96.4916 361.801 109.891H340.52ZM449.685 128.808C448.798 129.103 447.616 129.3 446.532 129.3C443.971 129.3 440.424 127.132 435.596 116.788C432.641 110.383 428.896 103.093 424.364 100.826C432.739 98.9546 439.143 93.7327 439.143 82.895C439.143 68.2147 428.108 64.668 408.896 64.668C404.955 64.668 393.132 65.4561 390.571 65.555C388.698 65.6533 387.714 65.6533 385.841 65.6533V67.6233H386.826C391.26 67.6233 391.95 68.3131 392.048 72.0574C392.245 80.038 392.245 87.7228 392.245 96.2941C392.245 106.048 392.245 113.831 391.95 122.699C391.851 127.822 391.654 128.808 386.728 128.808V130.778C389.979 130.778 392.147 130.482 400.226 130.482C406.137 130.482 408.6 130.778 411.556 130.778V128.808C406.63 128.808 406.531 127.822 406.335 122.699C406.137 115.507 406.137 109.004 406.137 101.614H408.206C415.004 101.713 419.931 115.507 422.689 121.122C425.842 128.315 431.852 131.665 439.34 131.665C445.941 131.665 448.503 131.271 449.981 130.778L449.685 128.808ZM406.137 99.6444C406.335 89.1024 406.236 80.038 406.335 66.7371C407.123 66.6387 408.206 66.6387 408.798 66.6387C422.295 66.6387 425.152 70.7762 425.152 82.2052C425.152 94.5208 421.803 99.6444 408.699 99.6444H406.137ZM443.971 65.6533L444.266 84.9641H445.941C452.542 70.6778 454.808 67.7224 459.833 67.6233C463.577 67.5252 464.069 69.5941 464.069 72.2546C464.266 80.8259 464.168 88.117 464.168 96.2941C464.168 106.048 464.266 113.831 463.971 122.699C463.774 127.822 461.803 128.808 456.582 128.808V130.778C460.03 130.778 464.168 130.482 470.966 130.482C478.158 130.482 482.493 130.778 485.745 130.778V128.808C480.523 128.808 478.552 127.822 478.356 122.699C478.06 113.831 478.06 106.048 478.06 96.2941C478.06 88.2151 478.06 81.1217 478.257 72.1555C478.356 69.2001 479.045 67.6233 482.296 67.6233C487.518 67.6233 489.39 70.9736 496.189 84.9641H497.962C498.06 79.3482 498.06 70.3822 498.257 65.6533H443.971Z" fill="#0083CA"/>
<path fill-rule="evenodd" clip-rule="evenodd" d="M550.377 128.808C546.239 128.808 545.451 127.92 544.663 124.177C540.821 106.245 536.485 88.0186 532.938 70.1855C532.544 68.3131 533.037 67.5252 534.022 67.4269C534.909 67.3285 535.894 67.3285 537.372 67.3285L537.274 65.6533H536.387C528.998 65.6533 522.002 65.1603 518.751 66.8354C515.303 68.7078 513.825 72.8453 511.756 80.2345C507.815 94.5208 503.775 108.807 499.933 123.093C498.553 127.92 498.061 128.709 494.81 128.808L494.711 130.778C496.189 130.778 498.061 130.581 500.031 130.581C501.115 130.581 505.45 130.778 506.534 130.778V128.808C501.706 128.808 501.214 128.118 501.805 125.655L505.549 111.861H527.716C528.603 116.394 529.49 120.827 530.279 125.359C530.869 128.315 529.392 128.808 526.14 128.808V130.778C529.49 130.778 531.461 130.581 536.88 130.581C544.466 130.581 547.224 130.778 550.476 130.778L550.377 128.808ZM506.042 109.891L514.021 80.6292C515.204 76.1954 516.78 71.3676 518.751 69.8899C521.707 83.0925 524.563 96.4916 527.322 109.891H506.042ZM551.363 130.778H596.487L598.654 114.029H596.979L589.688 123.684C587.718 126.344 585.551 128.808 581.117 128.808H571.56C571.462 126.738 571.462 124.768 571.363 122.699C571.067 113.831 571.067 106.048 571.067 96.2941C571.067 87.7228 571.067 80.038 571.265 72.0574C571.363 68.3131 572.053 67.6233 576.881 67.6233V65.6533C576.782 65.6533 570.673 65.8501 564.368 65.8501C557.668 65.8501 551.56 65.6533 551.461 65.6533V67.6233C556.19 67.6233 556.88 68.3131 556.979 72.0574C557.176 80.038 557.176 87.7228 557.176 96.2941C557.176 106.048 557.274 113.831 556.88 122.699C556.782 127.822 556.585 128.808 551.363 128.808V130.778ZM604.073 130.778C607.324 130.778 609.492 130.482 616.782 130.482C623.483 130.482 625.946 130.778 629 130.778V128.808C624.073 128.808 623.877 127.822 623.679 122.699C623.483 117.477 623.483 112.65 623.384 107.526H633.729C644.961 107.526 656.587 102.698 656.587 85.6537C656.587 67.9192 647.226 64.668 626.438 64.668C622.398 64.668 610.674 65.4561 608.113 65.555C606.24 65.6533 605.256 65.6533 603.383 65.6533V67.6233H604.171C608.605 67.6233 609.393 68.3131 609.492 72.0574C609.59 80.038 609.59 87.7228 609.59 96.2941C609.59 106.048 609.689 113.831 609.393 122.699C609.197 127.822 608.999 128.808 604.073 128.808V130.778ZM623.384 105.556V96.2941C623.384 87.7228 623.384 80.038 623.581 72.0574C623.679 69.6924 623.679 68.2148 623.778 66.7371C624.961 66.6387 625.748 66.6387 626.635 66.6387C639.443 66.6387 642.694 71.7616 642.694 85.3581C642.694 100.432 638.556 105.556 626.241 105.556H623.384ZM727.426 128.808C726.637 129.103 725.258 129.399 723.189 129.399C721.613 129.399 721.218 127.724 720.923 122.502C720.628 116.59 720.43 108.216 720.43 95.8018C720.43 84.6683 720.43 76.8852 720.824 71.5648C721.021 69.1018 721.218 67.9192 723.583 67.7224C724.765 67.6233 725.652 67.6233 726.342 67.6233V65.6533C723.091 65.6533 721.613 65.8501 713.435 65.8501C708.115 65.8501 703.681 65.6533 702.007 65.6533V67.6233C706.834 67.7224 706.341 68.8062 706.44 71.6632C706.637 76.8851 706.637 86.2451 706.637 95.5062V98.659H683.779C683.779 89.7919 683.976 81.1218 683.976 72.2546C683.976 66.0475 681.711 64.668 674.912 64.668C668.705 64.668 664.567 65.3577 662.99 65.6533L663.384 67.6233C663.582 67.6233 665.454 67.4269 666.636 67.4269C668.804 67.4269 669.395 68.7078 669.493 70.9737C669.69 76.8852 669.887 86.0479 669.887 100.925C669.887 109.398 669.789 116.886 669.592 122.305C669.395 128.118 668.902 128.808 664.567 128.808V130.778C667.818 130.778 669.592 130.581 677.474 130.581C683.188 130.581 686.538 130.778 688.902 130.778V128.808C684.568 128.808 683.878 128.118 683.878 122.403C683.878 116.886 683.779 108.807 683.779 101.122V100.63H706.637V124.177C706.637 130.384 709.002 131.665 715.996 131.665C722.105 131.665 725.75 131.172 727.721 130.778L727.426 128.808ZM786.343 128.808C782.205 128.808 781.417 127.92 780.629 124.177C776.786 106.245 772.451 88.0186 768.904 70.1855C768.51 68.3131 769.003 67.5252 769.988 67.4269C770.875 67.3285 771.86 67.3285 773.338 67.3285L773.239 65.6533H772.352C764.963 65.6533 757.968 65.1603 754.717 66.8354C751.268 68.7078 749.791 72.8453 747.722 80.2345C743.781 94.5208 739.741 108.807 735.899 123.093C734.519 127.92 734.027 128.709 730.776 128.808L730.677 130.778C732.154 130.778 734.027 130.581 735.997 130.581C737.081 130.581 741.416 130.778 742.5 130.778V128.808C737.672 128.808 737.179 128.118 737.77 125.655L741.514 111.861H763.682C764.569 116.394 765.456 120.827 766.244 125.359C766.835 128.315 765.357 128.808 762.106 128.808V130.778C765.456 130.778 767.426 130.581 772.845 130.581C780.431 130.581 783.19 130.778 786.441 130.778L786.343 128.808ZM742.008 109.891L749.987 80.6292C751.17 76.1954 752.746 71.3676 754.717 69.8899C757.672 83.0925 760.529 96.4916 763.288 109.891H742.008Z" fill="#00B48D"/>
<path fill-rule="evenodd" clip-rule="evenodd" d="M362.941 171.035H367.44C367.539 169.491 367.735 167.817 367.998 166.109H373.483L373.45 171.035H377.954L377.987 147.719H374.434C368.425 147.719 364.025 158.359 362.941 171.035ZM368.392 163.909C369.575 157.406 371.61 151.102 373.483 150.281V163.909H368.392ZM386.152 171.035H391.669V168.867H388.78C387.663 168.867 386.152 168.834 386.152 165.026V147.719H381.719V165.189C381.719 168.605 383.525 171.035 386.152 171.035ZM394.428 171.035H398.894V164.795H401.652C410.026 164.795 412.62 147.719 403.557 147.719H394.428V171.035ZM398.894 162.595V149.887H401.652C407.037 149.887 404.805 162.595 399.78 162.595H398.894ZM412.095 171.035H416.495V158.72H422.603V171.035H427.037V147.719H422.603V156.553H416.495V147.719H412.095V171.035ZM430.786 171.035H435.284C435.383 169.491 435.58 167.817 435.843 166.109H441.327L441.294 171.035H445.798L445.831 147.719H442.279C436.269 147.719 431.869 158.359 430.786 171.035ZM436.236 163.909C437.419 157.406 439.454 151.102 441.327 150.281V163.909H436.236ZM463.382 171.264C467.974 171.264 471.001 168.178 471.001 163.022C471.034 161.446 470.935 160.887 470.935 159.246H462.594V161.413H466.53L466.563 162.858C466.661 166.535 465.282 169.228 463.219 169.196C460.952 169.163 459.612 166.503 459.907 159.705C460.334 152.251 461.708 149.328 463.678 149.361C465.293 149.394 466.048 152.218 466.212 155.896H470.645C470.481 150.642 467.821 147.49 463.618 147.49C459.119 147.522 455.704 150.347 455.277 159.443C454.851 168.079 458.561 171.232 463.382 171.264ZM478.296 171.035H485.685V168.867H480.924C479.807 168.867 478.296 168.834 478.296 165.026V158.753H484.7V156.586H478.296V149.887H485.685V147.719H473.863V165.189C473.863 168.605 475.702 171.035 478.296 171.035ZM489.429 171.035H493.895V150.478C495.372 150.478 500.134 157.079 500.298 171.035H505.06V147.719H500.659V155.633C498.657 150.741 495.306 147.719 492.581 147.719H489.429V171.035ZM513.236 171.035H520.625V168.867H515.864C514.747 168.867 513.236 168.834 513.236 165.026V158.753H519.64V156.586H513.236V149.887H520.625V147.719H508.803V165.189C508.803 168.605 510.642 171.035 513.236 171.035ZM524.368 171.035H528.768V164.697H528.966C532.119 164.697 534.187 166.602 534.614 171.035H539.146C538.85 167.094 536.617 165.255 533.891 164.467C540.919 162.496 542.298 147.621 533.432 147.621H524.368V171.035ZM528.768 162.496V149.788H531.56C536.978 149.788 535.862 162.496 530.804 162.496H528.768ZM542.501 171.035H546.999C547.098 169.491 547.295 167.817 547.557 166.109H553.042L553.009 171.035H557.513L557.546 147.719H553.994C547.984 147.719 543.584 158.359 542.501 171.035ZM547.951 163.909C549.134 157.406 551.17 151.102 553.042 150.281V163.909H547.951ZM565.252 171.002H569.652V149.854H573.625V147.686H561.278V149.854H565.252V171.002ZM583.017 171.133C588.895 171.133 591.457 165.288 591.096 159.377C590.702 153.401 588.534 147.621 583.017 147.621C577.435 147.621 575.202 153.499 574.873 159.476C574.512 165.387 577.074 171.133 583.017 171.133ZM579.57 159.41C579.799 154.845 580.653 149.493 583.017 149.493C585.316 149.493 586.236 154.845 586.4 159.41C586.597 164.007 585.743 169.065 583.017 169.065C580.227 169.065 579.438 164.007 579.57 159.41ZM593.985 171.035H598.385V164.697H598.583C601.736 164.697 603.804 166.602 604.231 171.035H608.762C608.467 167.094 606.234 165.255 603.508 164.467C610.536 162.496 611.915 147.621 603.049 147.621H593.985V171.035ZM598.385 162.496V149.788H601.177C606.595 149.788 605.479 162.496 600.421 162.496H598.385Z" fill="#808285"/>
<defs>
<linearGradient id="paint0_linear_3910_7745" x1="-68.3615" y1="-562.124" x2="49.1435" y2="-692.626" gradientUnits="userSpaceOnUse">
<stop stop-color="#00B48D"/>
<stop offset="0.12" stop-color="white"/>
<stop offset="1"/>
</linearGradient>
<linearGradient id="paint1_linear_3910_7745" x1="-68.4682" y1="-561.871" x2="49.0368" y2="-692.374" gradientUnits="userSpaceOnUse">
<stop stop-color="#0083CA"/>
<stop offset="0.12" stop-color="white"/>
<stop offset="1"/>
</linearGradient>
</defs>
</svg>
