<svg width="788" height="755" viewBox="0 0 788 755" fill="none" xmlns="http://www.w3.org/2000/svg">
<rect width="788" height="755" rx="377.5" fill="#111008"/>
<path d="M127.464 329.954H146.542V370.663H147.214C149.453 364.841 152.767 360.362 157.156 357.227C161.545 354.093 166.784 352.525 172.875 352.525C178.518 352.525 183.578 354.048 188.056 357.093C192.535 360.049 196.028 364.303 198.536 369.856C201.044 375.41 202.298 381.903 202.298 389.337C202.298 396.772 201.044 403.265 198.536 408.818C196.028 414.372 192.535 418.671 188.056 421.716C183.578 424.672 178.518 426.15 172.875 426.15C166.874 426.15 161.634 424.582 157.156 421.447C152.767 418.312 149.453 413.879 147.214 408.147H146.542L145.87 424H127.464V329.954ZM146.542 393.502C146.542 397.175 147.303 400.489 148.826 403.444C150.349 406.31 152.453 408.594 155.14 410.296C157.917 411.998 161.097 412.849 164.679 412.849C168.352 412.849 171.576 411.908 174.353 410.027C177.129 408.147 179.279 405.46 180.802 401.966C182.324 398.384 183.085 394.174 183.085 389.337C183.085 384.501 182.324 380.336 180.802 376.843C179.279 373.26 177.129 370.528 174.353 368.647C171.576 366.766 168.352 365.826 164.679 365.826C161.097 365.826 157.917 366.677 155.14 368.379C152.453 370.08 150.349 372.409 148.826 375.365C147.303 378.231 146.542 381.545 146.542 385.307V393.502ZM216.157 329.954H235.235V371.2H236.041C237.922 365.199 241.057 360.586 245.445 357.362C249.834 354.137 255.208 352.525 261.568 352.525C266.225 352.525 270.48 353.555 274.331 355.615C278.272 357.675 281.362 360.765 283.601 364.885C285.93 368.916 287.094 373.708 287.094 379.261V424H268.016V384.635C268.016 379.082 266.673 374.872 263.986 372.006C261.388 369.05 257.492 367.573 252.297 367.573C248.804 367.573 245.759 368.379 243.161 369.991C240.654 371.603 238.683 373.932 237.25 376.977C235.906 380.022 235.235 383.605 235.235 387.725V424H216.157V329.954ZM327.359 426.15C322.701 426.15 318.402 425.12 314.461 423.06C310.52 420.999 307.43 417.954 305.191 413.924C302.952 409.804 301.832 404.967 301.832 399.414V354.675H320.91V393.637C320.91 399.19 322.298 403.489 325.075 406.534C327.851 409.58 331.747 411.102 336.763 411.102C340.256 411.102 343.257 410.296 345.765 408.684C348.273 407.072 350.198 404.743 351.542 401.698C352.885 398.652 353.557 395.07 353.557 390.95V354.675H372.769V424H354.229L353.557 407.475H352.751C350.87 413.476 347.735 418.089 343.346 421.313C338.958 424.537 333.628 426.15 327.359 426.15ZM385.394 354.675H405.816L411.861 372.544C412.399 374.424 412.936 376.261 413.474 378.052C414.101 379.843 414.728 381.635 415.354 383.426C417.683 391.397 419.967 398.697 422.206 405.325H423.012C424.087 401.653 425.162 398.205 426.237 394.98C427.312 391.666 428.387 388.397 429.461 385.173C430.088 383.202 430.715 381.187 431.342 379.127C432.059 376.977 432.775 374.783 433.492 372.544L439.538 354.675H459.287L433.626 424H410.921L385.394 354.675ZM485.703 426.15C478.985 426.15 473.477 424.493 469.178 421.179C464.968 417.865 462.863 413.118 462.863 406.937C462.863 400.757 465.013 395.876 469.312 392.293C473.701 388.71 480.06 386.919 488.39 386.919H497.123C501.333 386.919 504.647 386.561 507.065 385.844C509.483 385.038 511.23 383.963 512.305 382.62C513.379 381.187 513.917 379.395 513.917 377.246C513.917 374.559 512.752 372.185 510.424 370.125C508.095 367.976 504.423 366.901 499.407 366.901C494.749 366.901 490.943 368.065 487.987 370.394C485.031 372.633 483.285 375.992 482.747 380.47H463.669C464.565 371.693 468.148 364.841 474.418 359.915C480.687 354.988 489.062 352.525 499.541 352.525C510.021 352.525 518.171 354.764 523.993 359.243C529.815 363.632 532.726 369.812 532.726 377.783V424H514.185L513.917 407.206H513.245C511.722 412.759 508.453 417.327 503.437 420.91C498.422 424.403 492.51 426.15 485.703 426.15ZM493.361 413.655C497.212 413.655 500.706 412.759 503.84 410.968C507.065 409.087 509.528 406.624 511.23 403.579C513.021 400.444 513.917 397.13 513.917 393.637V387.322H513.245C512.528 390.636 510.782 393.099 508.005 394.711C505.318 396.234 501.512 396.995 496.585 396.995H491.883C488.838 396.995 486.464 397.757 484.763 399.279C483.061 400.712 482.21 402.728 482.21 405.325C482.21 408.102 483.15 410.207 485.031 411.64C487.002 412.983 489.778 413.655 493.361 413.655ZM551.248 354.675H569.788L570.325 371.2H571.131C573.012 365.199 576.147 360.586 580.536 357.362C584.925 354.137 590.299 352.525 596.658 352.525C601.316 352.525 605.57 353.555 609.422 355.615C613.363 357.675 616.453 360.765 618.692 364.885C621.021 368.916 622.185 373.708 622.185 379.261V424H603.107V384.635C603.107 379.082 601.764 374.872 599.077 372.006C596.479 369.05 592.583 367.573 587.388 367.573C583.895 367.573 580.85 368.379 578.252 369.991C575.744 371.603 573.774 373.932 572.341 376.977C570.997 380.022 570.325 383.605 570.325 387.725V424H551.248V354.675ZM649.636 426.015C646.142 426.015 643.231 424.851 640.903 422.522C638.574 420.193 637.41 417.282 637.41 413.789C637.41 410.475 638.574 407.699 640.903 405.46C643.231 403.131 646.142 401.966 649.636 401.966C653.129 401.966 656.04 403.131 658.368 405.46C660.697 407.699 661.861 410.475 661.861 413.789C661.861 417.193 660.697 420.104 658.368 422.522C656.04 424.851 653.129 426.015 649.636 426.015Z" fill="white" fill-opacity="0.95"/>
</svg>
