<svg width="535" height="98" viewBox="0 0 535 98" fill="none" xmlns="http://www.w3.org/2000/svg">
<path d="M0.464122 0.954199H19.542V41.6626H20.2137C22.4529 35.8407 25.7669 31.3623 30.1557 28.2275C34.5445 25.0926 39.7842 23.5252 45.8748 23.5252C51.5176 23.5252 56.5781 25.0478 61.0565 28.0931C65.5349 31.0489 69.028 35.3033 71.5359 40.8565C74.0438 46.4097 75.2977 52.9033 75.2977 60.3374C75.2977 67.7715 74.0438 74.2651 71.5359 79.8183C69.028 85.3715 65.5349 89.6707 61.0565 92.716C56.5781 95.6718 51.5176 97.1496 45.8748 97.1496C39.8738 97.1496 34.6341 95.5822 30.1557 92.4473C25.7669 89.3125 22.4529 84.8789 20.2137 79.1466H19.542L18.8702 95H0.464122V0.954199ZM19.542 64.5023C19.542 68.1746 20.3033 71.4886 21.826 74.4443C23.3486 77.3104 25.4534 79.5944 28.1405 81.2962C30.917 82.998 34.0967 83.8489 37.6794 83.8489C41.3517 83.8489 44.5761 82.9084 47.3527 81.0275C50.1293 79.1466 52.2789 76.4595 53.8015 72.9664C55.3242 69.3837 56.0855 65.174 56.0855 60.3374C56.0855 55.5008 55.3242 51.3359 53.8015 47.8428C52.2789 44.2601 50.1293 41.5282 47.3527 39.6473C44.5761 37.7664 41.3517 36.826 37.6794 36.826C34.0967 36.826 30.917 37.6768 28.1405 39.3786C25.4534 41.0804 23.3486 43.4092 21.826 46.3649C20.3033 49.231 19.542 52.545 19.542 56.3069V64.5023ZM89.1569 0.954199H108.235V42.2H109.041C110.922 36.199 114.057 31.5863 118.445 28.3618C122.834 25.1374 128.208 23.5252 134.568 23.5252C139.225 23.5252 143.48 24.5552 147.331 26.6153C151.272 28.6753 154.362 31.7654 156.601 35.8855C158.93 39.916 160.094 44.7079 160.094 50.2611V95H141.016V55.6351C141.016 50.0819 139.673 45.8723 136.986 43.0061C134.388 40.0504 130.492 38.5725 125.297 38.5725C121.804 38.5725 118.759 39.3786 116.161 40.9908C113.654 42.6031 111.683 44.9318 110.25 47.9771C108.906 51.0224 108.235 54.6051 108.235 58.7252V95H89.1569V0.954199ZM200.359 97.1496C195.701 97.1496 191.402 96.1196 187.461 94.0595C183.52 91.9995 180.43 88.9542 178.191 84.9237C175.952 80.8036 174.832 75.9669 174.832 70.4137V25.6748H193.91V64.6366C193.91 70.1898 195.298 74.4891 198.075 77.5344C200.851 80.5796 204.747 82.1023 209.763 82.1023C213.256 82.1023 216.257 81.2962 218.765 79.684C221.273 78.0718 223.198 75.743 224.542 72.6977C225.885 69.6524 226.557 66.0697 226.557 61.9496V25.6748H245.769V95H227.229L226.557 78.4748H225.751C223.87 84.4758 220.735 89.0885 216.346 92.313C211.958 95.5374 206.628 97.1496 200.359 97.1496ZM258.394 25.6748H278.816L284.861 43.5435C285.399 45.4244 285.936 47.2606 286.474 49.0519C287.101 50.8433 287.728 52.6346 288.354 54.426C290.683 62.3975 292.967 69.6972 295.206 76.3252H296.012C297.087 72.6529 298.162 69.2046 299.237 65.9802C300.312 62.6662 301.387 59.3969 302.461 56.1725C303.088 54.202 303.715 52.1868 304.342 50.1267C305.059 47.9771 305.775 45.7827 306.492 43.5435L312.538 25.6748H332.287L306.626 95H283.921L258.394 25.6748ZM358.703 97.1496C351.985 97.1496 346.477 95.4926 342.178 92.1786C337.968 88.8646 335.863 84.1176 335.863 77.9374C335.863 71.7573 338.013 66.8758 342.312 63.2931C346.701 59.7104 353.06 57.9191 361.39 57.9191H370.123C374.333 57.9191 377.647 57.5608 380.065 56.8443C382.483 56.0382 384.23 54.9634 385.305 53.6198C386.379 52.1868 386.917 50.3954 386.917 48.2458C386.917 45.5588 385.752 43.1852 383.424 41.1252C381.095 38.9756 377.423 37.9008 372.407 37.9008C367.749 37.9008 363.943 39.0651 360.987 41.3939C358.031 43.6331 356.285 46.9919 355.747 51.4702H336.669C337.565 42.6926 341.148 35.8407 347.418 30.9145C353.687 25.9883 362.062 23.5252 372.541 23.5252C383.021 23.5252 391.171 25.7644 396.993 30.2427C402.815 34.6316 405.726 40.8117 405.726 48.7832V95H387.185L386.917 78.2061H386.245C384.722 83.7593 381.453 88.3272 376.437 91.9099C371.422 95.4031 365.51 97.1496 358.703 97.1496ZM366.361 84.655C370.212 84.655 373.706 83.7593 376.84 81.9679C380.065 80.087 382.528 77.6239 384.23 74.5786C386.021 71.4438 386.917 68.1298 386.917 64.6366V58.3221H386.245C385.528 61.6361 383.782 64.0992 381.005 65.7115C378.318 67.2341 374.512 67.9954 369.585 67.9954H364.883C361.838 67.9954 359.464 68.7567 357.763 70.2794C356.061 71.7125 355.21 73.7277 355.21 76.3252C355.21 79.1018 356.15 81.2066 358.031 82.6397C360.002 83.9832 362.778 84.655 366.361 84.655ZM424.248 25.6748H442.788L443.325 42.2H444.131C446.012 36.199 449.147 31.5863 453.536 28.3618C457.925 25.1374 463.299 23.5252 469.658 23.5252C474.316 23.5252 478.57 24.5552 482.422 26.6153C486.363 28.6753 489.453 31.7654 491.692 35.8855C494.021 39.916 495.185 44.7079 495.185 50.2611V95H476.107V55.6351C476.107 50.0819 474.764 45.8723 472.077 43.0061C469.479 40.0504 465.583 38.5725 460.388 38.5725C456.895 38.5725 453.85 39.3786 451.252 40.9908C448.744 42.6031 446.774 44.9318 445.341 47.9771C443.997 51.0224 443.325 54.6051 443.325 58.7252V95H424.248V25.6748ZM522.636 97.0153C519.142 97.0153 516.231 95.8509 513.903 93.5221C511.574 91.1934 510.41 88.2824 510.41 84.7893C510.41 81.4753 511.574 78.6987 513.903 76.4595C516.231 74.1308 519.142 72.9664 522.636 72.9664C526.129 72.9664 529.04 74.1308 531.368 76.4595C533.697 78.6987 534.861 81.4753 534.861 84.7893C534.861 88.1929 533.697 91.1038 531.368 93.5221C529.04 95.8509 526.129 97.0153 522.636 97.0153Z" fill="white" fill-opacity="0.95"/>
</svg>
