<svg width="129" height="45" viewBox="0 0 129 45" fill="none" xmlns="http://www.w3.org/2000/svg">
<g filter="url(#filter0_d_298_214)">
<path d="M2.416 38V12.368H6.064V22.928H5.872C5.872 19.184 6.688 16.448 8.32 14.72C9.984 12.96 12.464 12.08 15.76 12.08H16.624V16.208H14.992C12.432 16.208 10.464 16.896 9.088 18.272C7.712 19.616 7.024 21.568 7.024 24.128V38H2.416ZM25.2715 38V12.368H29.8795V38H25.2715ZM21.3355 16.016V12.368H29.8795V16.016H21.3355ZM26.5675 8.24C25.5435 8.24 24.7755 7.968 24.2635 7.424C23.7835 6.88 23.5435 6.192 23.5435 5.36C23.5435 4.528 23.7835 3.84 24.2635 3.296C24.7755 2.752 25.5435 2.48 26.5675 2.48C27.5915 2.48 28.3435 2.752 28.8235 3.296C29.3355 3.84 29.5915 4.528 29.5915 5.36C29.5915 6.192 29.3355 6.88 28.8235 7.424C28.3435 7.968 27.5915 8.24 26.5675 8.24ZM49.1091 38.768C45.7491 38.768 43.1411 38.048 41.2851 36.608C39.4611 35.168 38.5171 33.2 38.4531 30.704H42.7731C42.8371 31.696 43.3331 32.64 44.2611 33.536C45.2211 34.4 46.8371 34.832 49.1091 34.832C51.1571 34.832 52.7251 34.432 53.8131 33.632C54.9011 32.8 55.4451 31.792 55.4451 30.608C55.4451 29.552 55.0451 28.736 54.2451 28.16C53.4451 27.552 52.1491 27.152 50.3571 26.96L47.5731 26.672C45.1411 26.416 43.1571 25.696 41.6211 24.512C40.0851 23.296 39.3171 21.6 39.3171 19.424C39.3171 17.792 39.7331 16.4 40.5651 15.248C41.3971 14.064 42.5491 13.168 44.0211 12.56C45.4931 11.92 47.1891 11.6 49.1091 11.6C51.9891 11.6 54.3251 12.24 56.1171 13.52C57.9091 14.8 58.8371 16.704 58.9011 19.232H54.5811C54.5491 18.208 54.0691 17.344 53.1411 16.64C52.2451 15.904 50.9011 15.536 49.1091 15.536C47.3171 15.536 45.9571 15.904 45.0291 16.64C44.1011 17.376 43.6371 18.304 43.6371 19.424C43.6371 20.384 43.9571 21.152 44.5971 21.728C45.2691 22.304 46.3571 22.672 47.8611 22.832L50.6451 23.12C53.3971 23.408 55.6051 24.176 57.2691 25.424C58.9331 26.64 59.7651 28.368 59.7651 30.608C59.7651 32.208 59.3011 33.632 58.3731 34.88C57.4771 36.096 56.2291 37.056 54.6291 37.76C53.0291 38.432 51.1891 38.768 49.1091 38.768ZM68.3635 38V2.96H72.9715V23.888H71.8195C71.8195 21.36 72.1395 19.184 72.7795 17.36C73.4515 15.504 74.4755 14.08 75.8515 13.088C77.2275 12.096 78.9875 11.6 81.1315 11.6H81.3235C84.3955 11.6 86.7155 12.624 88.2835 14.672C89.8515 16.688 90.6355 19.584 90.6355 23.36V38H86.0275V22.4C86.0275 20.32 85.4355 18.704 84.2515 17.552C83.0995 16.4 81.5955 15.824 79.7395 15.824C77.6915 15.824 76.0435 16.512 74.7955 17.888C73.5795 19.232 72.9715 21.008 72.9715 23.216V38H68.3635ZM102.235 38V12.368H106.843V38H102.235ZM98.2986 16.016V12.368H106.843V16.016H98.2986ZM103.531 8.24C102.507 8.24 101.739 7.968 101.227 7.424C100.747 6.88 100.507 6.192 100.507 5.36C100.507 4.528 100.747 3.84 101.227 3.296C101.739 2.752 102.507 2.48 103.531 2.48C104.555 2.48 105.307 2.752 105.787 3.296C106.299 3.84 106.555 4.528 106.555 5.36C106.555 6.192 106.299 6.88 105.787 7.424C105.307 7.968 104.555 8.24 103.531 8.24ZM116.76 38V32.144H122.328V38H116.76Z" fill="white"/>
</g>
<defs>
<filter id="filter0_d_298_214" x="0.416016" y="0.480469" width="127.912" height="44.2871" filterUnits="userSpaceOnUse" color-interpolation-filters="sRGB">
<feFlood flood-opacity="0" result="BackgroundImageFix"/>
<feColorMatrix in="SourceAlpha" type="matrix" values="0 0 0 0 0 0 0 0 0 0 0 0 0 0 0 0 0 0 127 0" result="hardAlpha"/>
<feOffset dx="2" dy="2"/>
<feGaussianBlur stdDeviation="2"/>
<feComposite in2="hardAlpha" operator="out"/>
<feColorMatrix type="matrix" values="0 0 0 0 1 0 0 0 0 1 0 0 0 0 1 0 0 0 0.25 0"/>
<feBlend mode="normal" in2="BackgroundImageFix" result="effect1_dropShadow_298_214"/>
<feBlend mode="normal" in="SourceGraphic" in2="effect1_dropShadow_298_214" result="shape"/>
</filter>
</defs>
</svg>
